<svg width="19" height="15" viewBox="0 0 19 15" fill="none" xmlns="http://www.w3.org/2000/svg">
<path d="M17.7812 6C17.9479 6 18.0312 6.08333 18.0312 6.25C18.0312 6.5625 18 6.91667 17.9375 7.3125C17.875 7.6875 17.7604 8.1875 17.5938 8.8125C17.4479 9.41667 17.1667 10.0521 16.75 10.7188C16.3542 11.3646 15.8542 11.9479 15.25 12.4688C13.5208 14.1562 11.4479 15 9.03125 15C6.61458 15 4.54167 14.1562 2.8125 12.4688C2.20833 11.9479 1.69792 11.3646 1.28125 10.7188C0.885417 10.0521 0.604167 9.41667 0.4375 8.8125C0.291667 8.1875 0.1875 7.6875 0.125 7.3125C0.0625 6.91667 0.03125 6.5625 0.03125 6.25C0.03125 6.08333 0.114583 6 0.28125 6C0.614583 6 0.979167 6.03125 1.375 6.09375C1.79167 6.13542 2.32292 6.23958 2.96875 6.40625C3.63542 6.55208 4.32292 6.8125 5.03125 7.1875C5.73958 7.5625 6.38542 8.03125 6.96875 8.59375C7.86458 9.40625 8.55208 10.3958 9.03125 11.5625C9.51042 10.3958 10.1979 9.40625 11.0938 8.59375C11.6771 8.03125 12.3229 7.5625 13.0312 7.1875C13.7396 6.8125 14.4167 6.55208 15.0625 6.40625C15.7292 6.23958 16.2604 6.13542 16.6562 6.09375C17.0729 6.03125 17.4479 6 17.7812 6ZM9.03125 9.46875C8.63542 8.86458 8.16667 8.32292 7.625 7.84375C7.08333 7.32292 6.46875 6.86458 5.78125 6.46875C6.32292 4.15625 7.32292 2.36458 8.78125 1.09375C8.94792 0.947917 9.11458 0.947917 9.28125 1.09375C10.7604 2.36458 11.7604 4.15625 12.2812 6.46875C11.5729 6.86458 10.9479 7.33333 10.4062 7.875C9.88542 8.33333 9.42708 8.86458 9.03125 9.46875Z" fill="#FE3162"/>
</svg>
