<svg width="691" height="571" viewBox="0 0 691 571" fill="none" xmlns="http://www.w3.org/2000/svg" xmlns:xlink="http://www.w3.org/1999/xlink">
<path d="M60.3575 457.189L43.4645 404.292C40.9138 396.305 39.5349 387.989 39.3712 379.607L39.0114 361.175C38.5383 336.942 52.8335 314.899 75.0774 305.563C91.6566 298.604 110.506 299.649 126.25 308.399L145.293 318.983C157.121 325.557 164.816 337.723 165.712 351.266L165.809 352.738C166.741 366.837 175.491 379.221 188.435 384.763C197.75 388.751 205.057 396.37 208.677 405.87L211.362 412.916C219.131 433.304 214.226 456.355 198.847 471.729L183.197 487.374C162.469 508.096 131.52 514.594 104.218 503.956C83.326 495.817 67.2032 478.625 60.3575 457.189Z" fill="#E7ECF5"/>
<path d="M328.962 45.0644L503.82 49.3665L527 52.4682C613.926 64.0995 681.308 134.016 689.533 221.115L690.312 229.373C692.773 255.432 688.604 281.69 678.191 305.717C663.432 339.771 636.962 367.446 603.553 383.752L584.394 393.104C558.38 405.8 529.054 410.121 500.472 405.467L489.335 403.653C448.449 396.996 407.022 411.938 379.858 443.14C360.842 464.983 334.512 479.182 305.777 483.091L288.26 485.474C226.969 493.811 166.102 467.556 130.216 417.302L125.737 411.03C114.599 395.433 106.046 378.153 100.406 359.849L98.337 353.137C79.7885 292.95 89.1632 227.643 123.899 175.062L147.132 139.894C187.286 79.1127 256.013 43.2695 328.962 45.0644Z" fill="#5A45FF"/>
<path d="M200.089 499.406L61.8506 358.466L45.5229 337.729C-15.7076 259.961 -15.1117 150.253 46.9601 73.1017L52.845 65.7872C71.4163 42.7043 95.5146 24.6715 122.91 13.3577C161.738 -2.67801 205.019 -4.33085 244.947 8.6971L267.846 16.1685C298.937 26.3129 326.1 45.8586 345.578 72.1023L353.168 82.3281C381.032 119.869 426.379 140.307 473.005 136.337C505.645 133.558 538.177 142.732 564.537 162.147L580.606 173.982C636.83 215.394 665.414 284.546 654.823 353.539L653.502 362.15C650.215 383.562 643.506 404.309 633.63 423.598L630.009 430.671C597.537 494.096 538.406 539.728 468.776 555.096L422.204 565.375C341.715 583.139 257.761 558.205 200.089 499.406Z" fill="#F7F7F8"/>
<path d="M200.089 499.406L61.8506 358.466L45.5229 337.729C-15.7076 259.961 -15.1117 150.253 46.9601 73.1017L52.845 65.7872C71.4163 42.7043 95.5146 24.6715 122.91 13.3577C161.738 -2.67801 205.019 -4.33085 244.947 8.6971L267.846 16.1685C298.937 26.3129 326.1 45.8586 345.578 72.1023L353.168 82.3281C381.032 119.869 426.379 140.307 473.005 136.337C505.645 133.558 538.177 142.732 564.537 162.147L580.606 173.982C636.83 215.394 665.414 284.546 654.823 353.539L653.502 362.15C650.215 383.562 643.506 404.309 633.63 423.598L630.009 430.671C597.537 494.096 538.406 539.728 468.776 555.096L422.204 565.375C341.715 583.139 257.761 558.205 200.089 499.406Z" fill="url(#pattern0)"/>
<defs>
<pattern id="pattern0" patternContentUnits="objectBoundingBox" width="1" height="1">
<use xlink:href="#image0" transform="translate(-0.160207) scale(0.000817594 0.000940734)"/>
</pattern>
<image id="image0" width="1615" height="1063" xlink:href="https://themewagon.gitlab.io/raven/assets/img/team/member/member-2.png"/>
</defs>
</svg>
