<svg width="587" height="429" viewBox="0 0 587 429" fill="none" xmlns="http://www.w3.org/2000/svg" xmlns:xlink="http://www.w3.org/1999/xlink">
<path d="M360.547 427.465L250.513 411.354C237.546 409.456 224.927 405.665 213.059 400.103L186.015 387.428C145.323 368.356 122.323 324.508 129.763 280.189C134.557 251.635 151.477 226.554 176.158 211.417L221.275 183.745C242.047 171.004 267.654 168.949 290.192 178.212C315.033 188.422 343.754 184.568 365.261 168.482C380.637 156.981 399.967 151.414 419.088 153.176L427.519 153.952C469.544 157.824 504.568 187.759 514.938 228.668L521.106 253.003C534.055 304.083 515.862 358.01 474.618 390.809L463.363 399.759C434.389 422.8 397.175 432.828 360.547 427.465Z" fill="#FEB850"/>
<mask id="mask0" mask-type="alpha" maskUnits="userSpaceOnUse" x="0" y="0" width="557" height="420">
<path d="M384.472 47.4725L463.425 59.7989C489.345 63.8457 512.953 77.0582 529.958 97.0352C565.208 138.446 564.75 199.446 528.883 240.323L475.87 300.739L442.843 343.654C429.759 360.656 413.905 375.333 395.946 387.07C365.81 406.764 330.724 417.544 294.729 418.169L215.266 419.548C144.409 420.778 78.5768 383.075 43.7816 321.338L24.8651 287.774C-12.1444 222.107 -7.53693 140.903 36.6622 79.8434C84.404 13.89 168.401 -15.0098 246.615 7.60794L384.472 47.4725Z" fill="#FE3162"/>
</mask>
<g mask="url(#mask0)">
<path d="M-8 0H562V429H-8V0Z" fill="url(#pattern0)"/>
</g>
<path d="M520.02 66.3228L519.844 66.3126C518.805 66.2523 517.866 65.6733 517.346 64.7718C516.902 64.0026 516.81 63.0794 517.094 62.2377L517.427 61.2512C517.585 60.7816 517.635 60.2823 517.573 59.7907L517.553 59.6241C517.417 58.5434 517.877 57.474 518.755 56.8294C519.867 56.0134 521.391 56.0592 522.452 56.9403L523.176 57.5419C524.183 58.3789 524.743 59.6373 524.691 60.9461L524.66 61.7252C524.595 63.3611 523.696 64.8494 522.278 65.668L521.927 65.8706C521.349 66.2042 520.686 66.3614 520.02 66.3228Z" fill="#5A45FF"/>
<path d="M579.782 77.9682L579.879 77.9526C580.457 77.8607 581.041 78.0653 581.435 78.4971C581.771 78.8656 581.933 79.3609 581.878 79.8567L581.814 80.4378C581.784 80.7144 581.817 80.9943 581.91 81.2565L581.941 81.3454C582.145 81.9218 582.022 82.5637 581.618 83.0228C581.106 83.6041 580.265 83.7624 579.577 83.4067L579.107 83.1638C578.454 82.8259 577.996 82.2031 577.867 81.4791L577.79 81.048C577.629 80.1429 577.943 79.2184 578.622 78.5989L578.79 78.4456C579.067 78.1931 579.412 78.0271 579.782 77.9682Z" fill="#5A45FF"/>
<path d="M555.922 147.319L555.7 147.236C554.386 146.741 553.409 145.618 553.101 144.248C552.838 143.08 553.09 141.854 553.794 140.884L554.618 139.747C555.011 139.206 555.276 138.583 555.394 137.926L555.434 137.703C555.693 136.257 556.715 135.064 558.104 134.587C559.863 133.982 561.807 134.653 562.819 136.213L563.51 137.279C564.472 138.761 564.688 140.606 564.095 142.271L563.743 143.262C563.002 145.342 561.247 146.897 559.092 147.382L558.559 147.502C557.681 147.7 556.764 147.636 555.922 147.319Z" fill="white"/>
<path d="M564.443 105.12L564.307 105.315C563.502 106.465 562.172 107.133 560.769 107.093C559.571 107.058 558.446 106.51 557.681 105.588L556.784 104.507C556.357 103.993 555.819 103.582 555.211 103.304L555.005 103.211C553.668 102.601 552.766 101.315 552.648 99.8511C552.498 97.9973 553.63 96.2797 555.393 95.686L556.596 95.2806C558.27 94.7166 560.112 94.9643 561.577 95.9508L562.45 96.5381C564.282 97.7711 565.354 99.8572 565.29 102.065L565.274 102.611C565.248 103.511 564.959 104.383 564.443 105.12Z" fill="#5A45FF"/>
<path d="M500.605 115.48L500.814 115.592C502.052 116.255 502.873 117.496 502.999 118.894C503.106 120.087 502.695 121.269 501.871 122.138L500.904 123.157C500.444 123.642 500.1 124.225 499.896 124.861L499.827 125.077C499.381 126.477 498.211 127.525 496.771 127.816C494.948 128.184 493.109 127.264 492.31 125.585L491.765 124.438C491.006 122.842 491.034 120.984 491.84 119.412L492.319 118.476C493.326 116.511 495.271 115.199 497.47 115.001L498.014 114.952C498.911 114.871 499.811 115.055 500.605 115.48Z" fill="white"/>
<path d="M579.234 66.3228L579.058 66.3126C578.019 66.2523 577.08 65.6733 576.56 64.7718C576.116 64.0026 576.024 63.0794 576.308 62.2377L576.64 61.2512C576.799 60.7816 576.849 60.2823 576.787 59.7907L576.766 59.6241C576.631 58.5434 577.091 57.474 577.969 56.8294C579.081 56.0134 580.605 56.0592 581.665 56.9403L582.39 57.5419C583.397 58.3789 583.957 59.6373 583.905 60.9461L583.874 61.7252C583.809 63.3611 582.91 64.8494 581.492 65.668L581.141 65.8706C580.563 66.2042 579.9 66.3614 579.234 66.3228Z" fill="#5A45FF"/>
<path d="M554.586 63.9962L554.488 63.8498C553.91 62.9841 553.807 61.8857 554.213 60.9273C554.56 60.1094 555.241 59.48 556.084 59.1996L557.072 58.8709C557.542 58.7145 557.971 58.4538 558.326 58.1084L558.447 57.9914C559.228 57.2322 560.358 56.9553 561.402 57.2679C562.723 57.6636 563.604 58.9079 563.54 60.2852L563.496 61.2256C563.435 62.534 562.768 63.7392 561.692 64.486L561.051 64.9306C559.706 65.864 557.976 66.0427 556.469 65.4041L556.096 65.2461C555.481 64.9857 554.956 64.5513 554.586 63.9962Z" fill="#5A45FF"/>
<path d="M564.01 35.652L564.083 35.8121C564.515 36.7592 564.441 37.86 563.887 38.741C563.414 39.4929 562.64 40.0051 561.763 40.1469L560.735 40.3132C560.246 40.3923 559.781 40.581 559.375 40.8651L559.238 40.9613C558.345 41.5857 557.185 41.678 556.205 41.2024C554.964 40.6003 554.293 39.231 554.577 37.8817L554.771 36.9605C555.041 35.6788 555.893 34.5959 557.074 34.031L557.778 33.6947C559.255 32.9886 560.991 33.0891 562.377 33.9608L562.72 34.1765C563.285 34.5319 563.733 35.0448 564.01 35.652Z" fill="#5A45FF"/>
<path d="M542.087 63.1864L542.02 63.3493C541.627 64.3131 540.775 65.0142 539.754 65.215C538.882 65.3863 537.979 65.1745 537.274 64.6336L536.449 63.9995C536.055 63.6977 535.599 63.4886 535.114 63.3879L534.95 63.3538C533.883 63.1324 533.02 62.3509 532.695 61.3116C532.282 59.9959 532.819 58.5684 533.995 57.8499L534.799 57.3594C535.917 56.677 537.289 56.554 538.51 57.0268L539.238 57.3083C540.765 57.8992 541.882 59.2316 542.198 60.8381L542.276 61.2356C542.404 61.8904 542.339 62.5685 542.087 63.1864Z" fill="white"/>
<path d="M539.628 102.814L539.563 102.902C539.177 103.422 538.555 103.714 537.907 103.677C537.355 103.646 536.843 103.378 536.502 102.943L536.101 102.433C535.911 102.19 535.668 101.993 535.391 101.858L535.297 101.812C534.688 101.513 534.288 100.908 534.252 100.231C534.207 99.3737 534.751 98.5955 535.572 98.344L536.133 98.1723C536.912 97.9334 537.759 98.0713 538.423 98.5453L538.818 98.8274C539.648 99.4199 540.116 100.396 540.058 101.414L540.044 101.666C540.02 102.081 539.876 102.48 539.628 102.814Z" fill="white"/>
<path d="M536.713 124.983L536.604 124.977C535.957 124.939 535.372 124.578 535.048 124.017C534.771 123.538 534.714 122.963 534.891 122.439L535.098 121.825C535.197 121.532 535.228 121.221 535.19 120.915L535.177 120.811C535.092 120.138 535.379 119.472 535.925 119.071C536.618 118.563 537.567 118.591 538.227 119.14L538.678 119.515C539.306 120.036 539.655 120.82 539.622 121.635L539.603 122.12C539.562 123.139 539.002 124.065 538.119 124.575L537.901 124.701C537.541 124.909 537.128 125.007 536.713 124.983Z" fill="white"/>
<path d="M521.926 123.806L521.861 123.894C521.475 124.414 520.852 124.706 520.205 124.669C519.653 124.638 519.141 124.37 518.799 123.935L518.399 123.425C518.209 123.182 517.966 122.986 517.689 122.85L517.595 122.804C516.986 122.505 516.586 121.901 516.55 121.223C516.505 120.366 517.049 119.588 517.87 119.336L518.43 119.164C519.21 118.926 520.057 119.063 520.721 119.537L521.116 119.82C521.946 120.412 522.414 121.389 522.356 122.406L522.342 122.658C522.318 123.073 522.174 123.472 521.926 123.806Z" fill="white"/>
<path d="M542.36 139.068L542.425 139.197C542.808 139.96 542.782 140.865 542.355 141.605C541.99 142.236 541.372 142.681 540.657 142.824L539.819 142.993C539.42 143.073 539.045 143.242 538.721 143.488L538.611 143.571C537.898 144.111 536.949 144.222 536.131 143.863C535.095 143.408 534.502 142.305 534.693 141.19L534.823 140.428C535.005 139.369 535.669 138.454 536.621 137.954L537.188 137.656C538.377 137.031 539.804 137.059 540.968 137.731L541.256 137.898C541.73 138.171 542.114 138.578 542.36 139.068Z" fill="white"/>
<path d="M561.833 123.806L561.768 123.894C561.382 124.414 560.76 124.706 560.112 124.669C559.56 124.638 559.048 124.37 558.707 123.935L558.307 123.425C558.116 123.182 557.873 122.986 557.596 122.85L557.502 122.804C556.893 122.505 556.493 121.901 556.457 121.223C556.412 120.366 556.956 119.588 557.777 119.336L558.338 119.164C559.118 118.926 559.964 119.063 560.628 119.537L561.023 119.82C561.853 120.412 562.321 121.389 562.263 122.406L562.249 122.658C562.225 123.073 562.081 123.472 561.833 123.806Z" fill="#5A45FF"/>
<path d="M534.051 162.949L534.002 162.851C533.711 162.272 533.731 161.585 534.055 161.024C534.332 160.545 534.801 160.208 535.343 160.099L535.979 159.971C536.282 159.91 536.566 159.782 536.812 159.596L536.896 159.533C537.436 159.123 538.156 159.038 538.777 159.311C539.563 159.656 540.013 160.493 539.868 161.339L539.769 161.917C539.632 162.721 539.128 163.415 538.406 163.794L537.976 164.02C537.073 164.494 535.991 164.473 535.108 163.963L534.889 163.837C534.529 163.629 534.238 163.32 534.051 162.949Z" fill="white"/>
<path d="M561.46 184.938L561.394 185.026C561.008 185.546 560.386 185.838 559.739 185.801C559.187 185.77 558.675 185.502 558.333 185.067L557.933 184.557C557.743 184.314 557.5 184.117 557.223 183.982L557.129 183.936C556.52 183.637 556.12 183.032 556.084 182.355C556.038 181.498 556.583 180.72 557.404 180.468L557.964 180.296C558.744 180.057 559.591 180.195 560.255 180.669L560.65 180.951C561.479 181.544 561.947 182.52 561.89 183.538L561.875 183.79C561.852 184.205 561.707 184.604 561.46 184.938Z" fill="white"/>
<path d="M561.895 200.612L561.83 200.7C561.444 201.22 560.822 201.511 560.174 201.475C559.622 201.443 559.11 201.176 558.769 200.741L558.369 200.231C558.178 199.988 557.935 199.791 557.658 199.655L557.564 199.61C556.955 199.311 556.555 198.706 556.519 198.029C556.474 197.172 557.018 196.393 557.839 196.142L558.4 195.97C559.18 195.731 560.026 195.869 560.69 196.343L561.085 196.625C561.915 197.218 562.383 198.194 562.325 199.212L562.311 199.464C562.287 199.879 562.143 200.278 561.895 200.612Z" fill="white"/>
<path d="M534.965 83.9718L534.878 83.9061C534.359 83.5175 534.07 82.8939 534.11 82.2469C534.144 81.6948 534.414 81.184 534.851 80.8446L535.363 80.4469C535.607 80.2576 535.804 80.0157 535.941 79.7392L535.988 79.6456C536.289 79.0379 536.896 78.6409 537.573 78.6082C538.431 78.5669 539.207 79.1148 539.454 79.937L539.623 80.4983C539.858 81.2793 539.716 82.1253 539.239 82.7869L538.955 83.1807C538.359 84.0076 537.38 84.471 536.363 84.4084L536.111 84.3929C535.696 84.3674 535.298 84.221 534.965 83.9718Z" fill="#5A45FF"/>
<path d="M561.845 83.382L561.779 83.4701C561.393 83.9906 560.771 84.282 560.124 84.2452C559.571 84.2139 559.059 83.9465 558.718 83.5113L558.318 83.0012C558.127 82.7584 557.884 82.5617 557.607 82.426L557.513 82.38C556.904 82.0816 556.504 81.4768 556.469 80.7995C556.423 79.9421 556.967 79.1638 557.788 78.9124L558.349 78.7406C559.129 78.5017 559.975 78.6396 560.639 79.1136L561.034 79.3958C561.864 79.9883 562.332 80.9647 562.274 81.9826L562.26 82.2345C562.237 82.6494 562.092 83.0483 561.845 83.382Z" fill="#5A45FF"/>
<defs>
<pattern id="pattern0" patternContentUnits="objectBoundingBox" width="1" height="1">
<use xlink:href="#image0" transform="translate(-0.117371 -0.0296406) scale(0.000315709 0.000419474)"/>
</pattern>
<image id="image0" width="3600" height="2542" xlink:href="https://themewagon.gitlab.io/raven/assets/img/team/member/member-2.png"/>
</defs>
</svg>
